<svg id="Layer_1" data-name="Layer 1" xmlns="http://www.w3.org/2000/svg" viewBox="0 0 347.28 347.42"><defs><style>.cls-1{fill:#ffc629;stroke:#ffc629;}.cls-1,.cls-2{stroke-miterlimit:10;}.cls-2{fill:#b31f3c;stroke:#b31f3c;}</style></defs><title>TFC_01</title><g id="Circle_Exterior" data-name="Circle Exterior"><path d="M181.62,5.58c48,.72,90.28,18.21,124.31,53.83s49.9,78.41,47.9,127.45c-1.9,46.37-19.94,86.06-53.5,118.06-35.56,33.92-78.49,49.94-127.56,47.91-46.36-1.92-86.05-20-118-53.56C20.87,263.73,4.87,220.83,6.89,171.8,8.79,125.57,26.79,86,60.17,54S134,6.14,181.62,5.58Zm-.64,298c4.65-.15,10.16.37,15.61-.68,2.12-.41,4.28-.59,6.41-1,1.78-.31,3.55-.72,5.31-1.15,2.56-.63,5.14-1.2,7.65-2,2.83-.89,5.62-1.92,8.38-3,3.89-1.55,7.83-3,11.56-4.9a132.58,132.58,0,0,0,12.05-7c3.53-2.27,6.91-4.79,10.19-7.4s6.18-5.12,9.06-7.91c2.61-2.53,5-5.29,7.39-8s4.66-5.45,6.76-8.34c2.26-3.11,4.37-6.35,6.35-9.66s3.58-6.43,5.23-9.72c1.11-2.21,2-4.51,3-6.8.8-2,1.52-4,2.2-6,.77-2.28,1.47-4.59,2.18-6.89a52.5,52.5,0,0,0,1.49-5.28c.72-3.71,1.15-7.48,1.94-11.18a47.37,47.37,0,0,0,.85-9.35c.08-5.45,0-10.9,0-16.35a26.74,26.74,0,0,0,0-2.94c-.25-2.26-.56-4.51-.91-6.75-.42-2.73-.86-5.45-1.38-8.16-.29-1.5-.79-3-1.16-4.46-.49-2-.86-4-1.46-5.91s-1.49-4.09-2.23-6.13c-.66-1.83-1.17-3.74-2-5.51-1.67-3.69-3.32-7.39-5.27-10.93-2.28-4.13-4.77-8.16-7.37-12.11a93.73,93.73,0,0,0-5.84-7.68,93,93,0,0,0-6.85-7.85c-3.84-3.74-7.92-7.23-11.91-10.81a67.16,67.16,0,0,0-9-6.49c-1.84-1.17-3.74-2.25-5.53-3.48a64.37,64.37,0,0,0-12.34-6.42c-3.18-1.29-6.32-2.66-9.52-3.91-2-.79-4.12-1.47-6.21-2.09s-4.21-1.18-6.34-1.61c-3.82-.77-7.67-1.34-11.48-2.14a49.16,49.16,0,0,0-10.25-.9c-4.68,0-9.36-.08-14,0-3.28.08-6.56.38-9.83.69-2.15.2-4.29.55-6.41.92-1.82.32-3.63.72-5.43,1.16-2.49.61-5,1.17-7.43,1.95-2.82.89-5.61,1.93-8.36,3-3.72,1.47-7.46,2.89-11.06,4.62a114.54,114.54,0,0,0-15.44,9.25,79.71,79.71,0,0,0-7.42,5.41c-3.11,2.72-6.32,5.32-9.29,8.19-2.53,2.44-4.84,5.13-7.14,7.8S81,103.15,78.91,106c-2.24,3.08-4.31,6.3-6.27,9.57s-3.63,6.49-5.31,9.81c-1.11,2.2-2,4.5-3,6.8-.8,2-1.52,4-2.2,6-.77,2.28-1.47,4.59-2.17,6.89a52.56,52.56,0,0,0-1.5,5.28c-.72,3.71-1.15,7.48-1.94,11.18a48.2,48.2,0,0,0-.86,9.58c-.06,5.33,0,10.67,0,16a28.39,28.39,0,0,0,0,3.05c.25,2.29.57,4.58.91,6.86.4,2.66.78,5.32,1.31,7.95.45,2.2,1.1,4.36,1.69,6.53s1.12,4.14,1.75,6.18c.42,1.36,1,2.67,1.49,4,.67,1.83,1.24,3.7,2,5.5.88,2.09,1.91,4.11,2.88,6.16s1.74,3.95,2.83,5.8c1.84,3.15,3.8,6.23,5.81,9.27a70.93,70.93,0,0,0,6.28,8.67c2.72,3,5.22,6.21,8,9.11,2.53,2.61,5.28,5,8,7.38s5.46,4.61,8.36,6.68c3.37,2.4,6.85,4.68,10.42,6.78a100.18,100.18,0,0,0,9.86,5.07c4.16,1.86,8.38,3.63,12.69,5.09,4.52,1.54,9.15,2.8,13.79,3.94,2.93.72,6,.87,9,1.48a45.62,45.62,0,0,0,9.33.88Z" transform="translate(-6.72 -5.58)"/></g><g id="Trojans"><g id="Trojans-2" data-name="Trojans"><path class="cls-1" d="M91,70a16.24,16.24,0,0,1-2.59,2.17,3.33,3.33,0,0,1-2.11,0c-4.18-1-8.33-2.1-12.51-3.09-2.09-.5-4.22-.89-6.35-1.21a9.42,9.42,0,0,0-2.17.25,8.2,8.2,0,0,1-1.06,0c.07-.36,0-.83.22-1.05,2-2.08,4-4.12,6-6.15a.9.9,0,0,1,.74-.16q7.65,2.07,15.29,4.2a1.26,1.26,0,0,1,.59.38C88.37,66.82,89.63,68.35,91,70Z" transform="translate(-6.72 -5.58)"/><path class="cls-1" d="M63.86,90c-.43-1.6,1.62-2.18,1.85-3.69-2.1-1-4.24-2-6.39-3-1.44-.66-2.91-1.27-4.36-1.93s-1.7-1.39-.68-2.67,1.94-2.33,2.83-3.56a1.19,1.19,0,0,1,1.78-.41c4.88,2.5,9.77,5,14.65,7.46.86.44,1.67.93,2.69.47a.74.74,0,0,1,.7.22.87.87,0,0,1-.12.75c-.4.55-.86,1-1.3,1.56-1.34,1.58-2.66,3.19-4,4.74a3.68,3.68,0,0,1-1.08.59,5.65,5.65,0,0,0-.28-1.06c-.24-.5-.44-1.15-.86-1.42-2.23-1.42-2.3-1.38-3.95.74l-1.08,1.39Z" transform="translate(-6.72 -5.58)"/><path class="cls-1" d="M88.6,45c1,.49,1.09.93.68,1.58a2.28,2.28,0,0,0-.08,2.69,2.59,2.59,0,0,0,2.75,1c2.2-.34,4.38-.85,6.59-1.07,5.18-.52,8.55,4.29,6.39,9.06a6.9,6.9,0,0,1-3.42,3.62,3.14,3.14,0,0,1,.13-1.23,2.6,2.6,0,0,0-2.89-4.13c-1.8.31-3.57.82-5.38,1.09-2.14.32-4.24.16-5.95-1.43A6.15,6.15,0,0,1,86,48.67,28.88,28.88,0,0,1,88.6,45Z" transform="translate(-6.72 -5.58)"/><path class="cls-1" d="M21.7,150c.2-3.25,1.38-6.32,2-9.66,1.71.5,3.34,1,5,1.45,3.95,1.21,7.88,2.46,11.84,3.61.4.12,1-.38,1.48-.62.32-.16.62-.38.92-.57.1.36.33.75.27,1.07-.32,1.6-.72,3.19-1.1,4.77-.3,1.24-.58,2.48-1,3.69-.09.3-.49.5-.75.75-.18-.27-.5-.54-.52-.82-.07-1-.83-1.22-1.55-1.4-3.7-.93-7.42-1.82-11.13-2.73-.89-.22-1.79-.38-2.66-.67a1.44,1.44,0,0,0-2.09.92c0,.13-.23.2-.35.3Z" transform="translate(-6.72 -5.58)"/><path class="cls-1" d="M19.36,161.7c.56-3.12.55-3.07,3.88-2.4,4.46.9,8.93,1.71,13.4,2.56.78.15,1.5.28,1.93-.64.08-.18.45-.22.69-.32a2.89,2.89,0,0,1,.34,1.05c-.21,2.1-.48,4.2-.74,6.3a17.41,17.41,0,0,1-.35,2.13,1.1,1.1,0,0,1-.61.62c-.11,0-.52-.29-.56-.5-.19-1-1-1.13-1.78-1.24-5.14-.7-10.28-1.44-15.43-2.12-.92-.12-1.33-.36-1.16-1.41C19.22,164.41,19.25,163,19.36,161.7Z" transform="translate(-6.72 -5.58)"/><path class="cls-1" d="M59.13,108.45c-.38-.47-.71-.91-1.06-1.33a6.69,6.69,0,0,0-1.25-1.38q-6.11-4-12.29-7.84A3,3,0,0,0,43,97.78a7.2,7.2,0,0,0-1.15.21,3.75,3.75,0,0,1,.21-1.31c1.19-2,2.45-4,3.69-6A13.73,13.73,0,0,1,46.92,89c.2-.23.59-.3.89-.44.11.3.37.65.29.9-.32,1.06.2,1.61,1,2.16C52.18,93.75,55.16,96,58.32,98,62.25,100.54,62,104.56,59.13,108.45Z" transform="translate(-6.72 -5.58)"/><path class="cls-1" d="M24.26,138.19c.65-1.69,1.17-3.44,2-5,1.27-2.53,2.93-3.27,5.33-2.66a4.85,4.85,0,0,1,3.41,4.8c0,.66,0,1.32.07,2.36l1.26-1.94c1.32-2,2.53-2.41,4.75-1.6.63.23,1.26.49,1.9.69a1,1,0,0,0,.76,0c.14-.11.09-.47.13-.72l.2-1.27c.41.23,1,.36,1.21.7a5.8,5.8,0,0,1-.43,6.78c-1.39,1.55-3.07,1.2-4.77.74a14.09,14.09,0,0,0-2.73-.79,6.21,6.21,0,0,0-2.13.68l-1.2.43a4.6,4.6,0,0,1-.33-1,2.06,2.06,0,0,0-1.41-1.9q-2-.71-3.94-1.34a2.26,2.26,0,0,0-2.55.84,3.83,3.83,0,0,1-1.1.62Z" transform="translate(-6.72 -5.58)"/><path class="cls-1" d="M51,124.69c-2.66,5.4-8.36,7.1-14,4.47-5.37-2.52-7.18-7.63-5.07-13.5.42.67.7,1.13,1,1.58s.68,1.43,1.24,1.7q6.49,3.15,13.09,6.06c.54.24,1.34-.1,2-.16Z" transform="translate(-6.72 -5.58)"/><path class="cls-1" d="M51.42,123.58c-.43-.64-.85-1-.94-1.44A2.51,2.51,0,0,0,49,120.27c-4.21-2.07-8.42-4.14-12.6-6.26a1.75,1.75,0,0,0-2.11.13,1,1,0,0,1-1.61-.09,9.25,9.25,0,0,1,11.08-5.17C49.86,110.95,54,116.89,51.42,123.58Z" transform="translate(-6.72 -5.58)"/><path class="cls-1" d="M56.4,109.53c.42.38,1.26-.89,1.86.34a5.1,5.1,0,0,1-5.94,2.5,3.21,3.21,0,0,1-2-2.6,3.6,3.6,0,0,1,1.85-3.61c1-.52,2.14-.64,2.83.27A14.8,14.8,0,0,1,56.4,109.53Z" transform="translate(-6.72 -5.58)"/><path class="cls-1" d="M64.26,98.64a3.55,3.55,0,0,1-.15-1.17,3.63,3.63,0,0,0-1-3.07C60.67,91,58.24,87.64,55.9,84.13c1.26.22,2.42.34,3.2,1.59,1.52,2.43,3.18,4.79,4.84,7.13,1,1.35,1.44,1.43,3,.84a1.24,1.24,0,0,1,.88,0,.75.75,0,0,1,.13.72c-1,1.49-2.09,2.94-3.15,4.4Z" transform="translate(-6.72 -5.58)"/><path class="cls-1" d="M69.79,70c2.09.06,3.22,1.55,4.49,2.83s2.27,2.36,3.45,3.5a3.33,3.33,0,0,0,3.48,1c.28-.09.64.09,1,.14a2.69,2.69,0,0,1-.33.95c-.88,1-1.79,1.93-2.75,2.83-.23.21-.69.18-1,.26a3,3,0,0,1,0-.86,3.54,3.54,0,0,0-1.15-3.56c-2-2.06-4.06-4.07-6.09-6.1Z" transform="translate(-6.72 -5.58)"/><path class="cls-1" d="M100.21,63.48c-.81.31-1.61.65-2.43.92s-1.68.66-1.85,1.77c-.13.82-.75.86-1.19.32-1.29-1.57-2.52-3.2-3.7-4.85a1,1,0,0,1,.23-1,1.54,1.54,0,0,1,1.25.07,8.08,8.08,0,0,0,4.68,1.89c.59,0,1.18-.08,1.77,0a8.27,8.27,0,0,1,1.31.29Z" transform="translate(-6.72 -5.58)"/><path class="cls-1" d="M85,62.65c-2.17-.32-3.16-1.87-4.26-3.25s-2.5-2.72-4.66-2c-.2.07-.68-.08-.72-.21a1,1,0,0,1,.16-.85c1.34-1.19,2.71-2.35,4.1-3.48.17-.14.67-.16.75-.05a.94.94,0,0,1,.09.82c-1,1.84-.2,3.28,1,4.66Z" transform="translate(-6.72 -5.58)"/><path class="cls-1" d="M90.83,43.61c1-.37,2-.8,3-1.09.82-.24,1.49-.47,1.63-1.47a1.22,1.22,0,0,1,.77-.78c.21-.06.64.27.81.53.86,1.3,1.71,2.61,2.45,4,.2.38,0,1,0,1.47-.49-.09-1.13,0-1.45-.31a6.5,6.5,0,0,0-5.89-1.51,4,4,0,0,1-1.33-.21Z" transform="translate(-6.72 -5.58)"/><path class="cls-1" d="M20.47,155c.38-2.46.39-2.48,2.81-2a24.24,24.24,0,0,1,3.24.78,1.31,1.31,0,0,1,.75,1,1.27,1.27,0,0,1-.92.86,7.52,7.52,0,0,0-5.13,1.51c-.48.4-1.11.19-1-.7Z" transform="translate(-6.72 -5.58)"/><path class="cls-1" d="M18.69,168.41c.51.29,1,.41,1.17.7a6.81,6.81,0,0,0,4,2.67c.68.21,1.21.57.93,1.36a1.09,1.09,0,0,1-.8.62q-2.5-.16-5-.52c-.27,0-.69-.48-.68-.72C18.35,171.27,18.53,170,18.69,168.41Z" transform="translate(-6.72 -5.58)"/></g></g><g id="Futbol"><g id="Futbol-2" data-name="Futbol"><path class="cls-1" d="M243.63,31.62a9.34,9.34,0,0,1,1,.34l8.28,4a.93.93,0,0,1,.3.19c.32.37.62.75.93,1.13a4.83,4.83,0,0,1-1.36.15,1.64,1.64,0,0,0-2,1c-2.41,4.76-4.9,9.47-7.31,14.23-.45.89-.84,1-1.72.53-1.75-.94-3.6-1.71-5.38-2.61a5.21,5.21,0,0,1-1.07-1,8,8,0,0,0,1.22-.45c.41-.23,1-.48,1.13-.86,2.1-4.56,4.13-9.15,6.21-13.71.39-.86,0-1.33-.57-1.85A1,1,0,0,1,243,32C243,31.82,243.42,31.73,243.63,31.62Z" transform="translate(-6.72 -5.58)"/><path class="cls-1" d="M132.13,26.18l2.78,8.32c.93,2.79,1.82,5.6,2.83,8.36.19.52.87.87,1.35,1.28a5.94,5.94,0,0,0,.73.47c-.19.27-.33.68-.59.78-1.21.49-2.47.89-3.7,1.34s-2.67,1-4,1.48a3.41,3.41,0,0,1-1.27-.11,6.92,6.92,0,0,0,.42-1c.14-.57.46-1.24.28-1.71-1.76-4.65-3.61-9.27-5.42-13.9a1.28,1.28,0,0,0-1.58-.92c-.31,0-.67-.23-1-.35.25-.28.45-.68.75-.81C126.42,28.32,129.18,27.3,132.13,26.18Z" transform="translate(-6.72 -5.58)"/><path class="cls-1" d="M144,23.15a10.83,10.83,0,0,1,1.73-.77c2.83-.63,5.67-1.21,8.51-1.8a2.5,2.5,0,0,1,1,0c.24,0,.58.2.64.38a.74.74,0,0,1-.3.67c-1.32.59-1.12,1.57-.9,2.71.82,4.29,1.56,8.59,2.3,12.89a3,3,0,0,0,1.85,2.45c.33.15.51.61.76.93a3.85,3.85,0,0,1-.95.46,12.32,12.32,0,0,1-6.13-.28,3.81,3.81,0,0,1-2.74-3c-.9-4-1.88-8-2.76-12-.25-1.14-.47-2.12-2-2C144.79,23.84,144.56,23.54,144,23.15Z" transform="translate(-6.72 -5.58)"/><path class="cls-1" d="M184.17,27.72c0,2.68,0,5.36-.09,8,0,.87.19,1.45,1.11,1.7.31.08.53.47.8.72-.32.19-.63.53-.95.54q-4.49.1-9,.07c-.31,0-.61-.37-.92-.57.26-.24.49-.58.8-.7a1.55,1.55,0,0,0,1.14-1.71c-.21-4.9-.33-9.81-.59-14.71-.14-2.74-.23-2.73,2.45-2.72,1.48,0,3,.06,4.44,0,.93,0,1.15.33,1.12,1.2-.07,2.71-.07,5.43-.1,8.15Z" transform="translate(-6.72 -5.58)"/><path class="cls-1" d="M200.32,40c-1.15-.11-2.17-.19-3.19-.3-1.42-.16-2.85-.31-4.26-.52-.33-.05-.62-.36-.93-.55.24-.22.45-.6.72-.65,1.17-.22,1.09-1.19,1.17-2,.47-4.83.91-9.67,1.27-14.52,0-.45-.48-1-.84-1.4a3.54,3.54,0,0,0-.95-.58l0-.32a3.87,3.87,0,0,1,1.14-.25c2.69.26,5.38.54,8.07.88a1,1,0,0,1,.59.75c-.51,3.7-1.09,7.39-1.63,11.08C201.11,34.39,200.74,37.1,200.32,40Z" transform="translate(-6.72 -5.58)"/><path class="cls-1" d="M207.76,30.62c.94.48,1.64.82,2.31,1.2,2.26,1.29,3.21,3.09,2.76,5.2A4.89,4.89,0,0,1,208,41a35,35,0,0,1-5.21-.53c-.19,0-.47-.44-.46-.66s.35-.48.58-.53c1.84-.35,1.95-.41,2.36-2.28.26-1.16.48-2.34.65-3.51a2.41,2.41,0,0,0-1.3-2.59c-.42-.25-.67-.8-1-1.24.35-.25.41-.32.48-.33,2.58-.4,2.8-.64,3.13-3.29,0-.12,0-.24,0-.36.45-2.93.45-2.93-2.33-4.66.51-.28.94-.72,1.24-.64a37.15,37.15,0,0,1,6.24,1.88,4,4,0,0,1,2.16,5.57,4.71,4.71,0,0,1-3.87,2.45C209.77,30.41,208.91,30.48,207.76,30.62Z" transform="translate(-6.72 -5.58)"/><path class="cls-1" d="M224,46c.41-.33.83-.65,1.22-1s1.22-.87,1.44-1.45q2.49-6.83,4.78-13.74c.18-.56-.2-1.31-.37-2s-.32-1-.57-1.73a9.56,9.56,0,0,1,6.83,11.38C235.89,43.29,231,48,224,46Z" transform="translate(-6.72 -5.58)"/><path class="cls-1" d="M229.18,25.6c-.51.43-.83.88-1.24,1a2.49,2.49,0,0,0-1.82,1.84c-1.34,4.41-2.74,8.81-4.13,13.21a2.54,2.54,0,0,0,.32,2.47,4.31,4.31,0,0,1,.31,1.57c-5.28-1.74-8.12-7.49-6-13.94C218.51,26.24,223.6,23.92,229.18,25.6Z" transform="translate(-6.72 -5.58)"/><path class="cls-1" d="M161,40.67c.26-.65.3-1.24.58-1.39,2.8-1.49,3.22-3.9,2.79-6.73s-.76-5.51-1.08-8.27c-.19-1.62-.76-2.91-2.48-3.42-.25-.07-.42-.4-.63-.61.21-.2.41-.54.65-.58q2.65-.4,5.31-.67a1.09,1.09,0,0,1,.76.44c.07.09-.12.56-.29.64-2.15,1.08-2,3-1.77,4.89.3,3,.75,5.91,1,8.88C166.13,37.14,164.44,39.62,161,40.67Z" transform="translate(-6.72 -5.58)"/><path class="cls-1" d="M250.33,57.92l-5.66-3.24c.49-.32.89-.78,1.16-.72a6.11,6.11,0,0,0,5.49-1.6c.27-.23.52-.56.84-.65a1.37,1.37,0,0,1,1,.13.94.94,0,0,1,.18.9C252.41,54.47,251.38,56.16,250.33,57.92Z" transform="translate(-6.72 -5.58)"/><path class="cls-1" d="M140.9,23.58c.47,1.73.9,3.21,1.24,4.71a1.18,1.18,0,0,1-.33,1,1.13,1.13,0,0,1-1.06-.24,6.55,6.55,0,0,0-5.91-2.44c-.28,0-.58-.32-.88-.49.13-.2.21-.52.38-.58C136.49,24.9,138.64,24.26,140.9,23.58Z" transform="translate(-6.72 -5.58)"/><path class="cls-1" d="M188.8,18.48c2.83,0,3,.24,2.52,3-.15.9,0,1.84-.19,2.73-.08.44-.56.8-.85,1.2-.36-.35-1-.64-1-1-.38-1.68-.71-3.33-2.11-4.54a1.36,1.36,0,0,1-.19-1.07c0-.14.51-.24.8-.28A7.53,7.53,0,0,1,188.8,18.48Z" transform="translate(-6.72 -5.58)"/><path class="cls-1" d="M172.61,18.46l1.54.44c-.29.52-.62,1-.87,1.57q-.7,1.55-1.3,3.15a8.72,8.72,0,0,1-.31,1.26,1.28,1.28,0,0,1-.9.62,1.07,1.07,0,0,1-.78-.7c-.2-1.81-.33-3.63-.42-5.45,0-.18.34-.51.57-.56C170.88,18.63,171.63,18.58,172.61,18.46Z" transform="translate(-6.72 -5.58)"/><path class="cls-1" d="M138.81,29.9c.42.5.74.72.82,1q1,3.12,1.82,6.28c.06.22-.12.71-.27.75a1.14,1.14,0,0,1-1-.17,5.06,5.06,0,0,0-3-2.07,1.74,1.74,0,0,1-.25-1.47,4.58,4.58,0,0,0,1-2.84C138.06,31,138.46,30.55,138.81,29.9Z" transform="translate(-6.72 -5.58)"/><path class="cls-1" d="M159.33,14.21a45.54,45.54,0,0,1-2.47,4c-.33.43-1.15.52-1.77.7s-1.16.22-2,.37c.3-1.37.53-2.62.87-3.84.08-.27.56-.55.9-.61C156.27,14.6,157.69,14.44,159.33,14.21Z" transform="translate(-6.72 -5.58)"/></g></g><g id="Club"><g id="Club-2" data-name="Club"><path class="cls-1" d="M290.3,90.5c-1.84-1.93-3.65-3.79-5.4-5.69-.24-.26-.21-.77-.31-1.17a6.26,6.26,0,0,0,1.06,0c.54-.07,1.25,0,1.58-.36,3.56-3.5,7.05-7.06,10.57-10.6a1.36,1.36,0,0,0,.19-1.92c-.18-.29-.06-.77-.07-1.17.36.11.83.12,1.06.36q3.93,4.19,7.77,8.45c.2.22.12.7.18,1.06-.35-.07-.8,0-1-.23-.95-.82-1.67-.65-2.58.15-4.18,3.65-8.41,7.23-12.62,10.83A4.52,4.52,0,0,1,290.3,90.5Z" transform="translate(-6.72 -5.58)"/><path class="cls-1" d="M329.37,121.37c.57,1.28-.26,1.67-1.23,1.93-2.51.65-5,1.27-7.53,1.91-3.13.8-6.25,1.6-9.37,2.45-1.37.37-1.45.3-1.83-1.11-.55-2-1.24-4-1.82-6.05a4.3,4.3,0,0,1,.06-1.33,8.62,8.62,0,0,0,1.13.58,2.51,2.51,0,0,0,1.37.28c4.83-1.6,9.64-3.26,14.45-4.9.82-.28.81-.95.88-1.64a3.54,3.54,0,0,1,.42-1c.3.27.77.49.89.83C327.67,116,328.51,118.68,329.37,121.37Z" transform="translate(-6.72 -5.58)"/><path class="cls-1" d="M319.75,98.52a2.66,2.66,0,0,1-.52,0c-1.37-1.64-2.7-.88-4.15,0-3.38,1.95-6.81,3.82-10.25,5.66a3.52,3.52,0,0,0-2.1,3c0,.39-.46.75-.91,1.45a22.57,22.57,0,0,1-1.67-3.54,26.66,26.66,0,0,1-.65-4.48,3.2,3.2,0,0,1,1.71-3.06c3.47-2.26,6.91-4.57,10.38-6.84.9-.59,1.62-1.17,1-2.4-.1-.22.15-.61.23-.92.34.17.8.25,1,.53Q315.3,89.9,316.6,92q1.48,2.45,2.84,5A5.44,5.44,0,0,1,319.75,98.52Z" transform="translate(-6.72 -5.58)"/><path class="cls-1" d="M321.13,127.07c1.06,2.31,1.56,2.54,4,1.89a7,7,0,0,1,.94-.19c1.91-.23,2.86-.74,3-3,0-.33.46-.64.87-.89.91,3.31,1.93,6.52.62,9.85-1.16,2.95-4.32,3.61-6.39,1.21a32.89,32.89,0,0,1-2.72-4.36c-.05.79-.08,1.51-.15,2.23-.19,1.79-.62,3.5-2.24,4.55a4.62,4.62,0,0,1-6.11-1.2c-1.63-2-2.14-4.41-2.57-6.84a.81.81,0,0,1,.42-.67.91.91,0,0,1,.78.25c1.43,1.63,2,1.79,4.09,1.15.8-.24,1.62-.4,2.44-.59a2.05,2.05,0,0,0,1.81-2.07C319.91,127.48,320.32,127.23,321.13,127.07Z" transform="translate(-6.72 -5.58)"/><path class="cls-1" d="M287.89,60.26a4.37,4.37,0,0,1-1.41.35,2.76,2.76,0,0,0-2.76,1c-2.68,3.73-5.38,7.44-8,11.24-.42.62-.25,1.65-.31,2.49a6,6,0,0,1-.19,1.55c-3.14-2.07-4.86-4.94-4.76-8.52.12-4.28,2-7.85,5.9-9.87s7.79-1.08,11.37,1.22Z" transform="translate(-6.72 -5.58)"/><path class="cls-1" d="M302.72,109.84c.52-.62,1-.72,1.63-.06,1.87,1.9,4,2,6.36.89,2.7-1.25,5.45-2.42,8.16-3.65,1.55-.7,2.69-1.71,2.44-3.66a4.06,4.06,0,0,1,.33-1.17,7.07,7.07,0,0,1,1.11,1.28c.76,1.62,1.49,3.25,2.14,4.92.15.37,0,.88-.08,1.33a3.63,3.63,0,0,1-1-.51c-1.27-1.28-2.72-1.17-4.21-.56-3.16,1.31-6.29,2.67-9.45,4A6.38,6.38,0,0,1,302.72,109.84Z" transform="translate(-6.72 -5.58)"/><path class="cls-1" d="M289.73,61.15c.82,1.07,1.62,2.11,2.4,3.15.59.79,1.19,1.46,2.37,1.26.3-.05.78.34,1,.65s0,.7-.21.92c-1.36,1.57-2.73,3.12-4.16,4.62A1.53,1.53,0,0,1,290,72a3.37,3.37,0,0,1-.45-1.68,28.13,28.13,0,0,0,.7-3.81,9.32,9.32,0,0,0-1-3.59C288.95,62.17,288.78,61.72,289.73,61.15Z" transform="translate(-6.72 -5.58)"/><path class="cls-1" d="M291.69,92.23c.44-.75.83-.89,1.57-.42a6,6,0,0,0,5.38.45c.34-.11.69-.35,1-.3a1.49,1.49,0,0,1,.88.63c.1.16-.07.59-.23.8a3.91,3.91,0,0,1-.84.66L295.34,97Z" transform="translate(-6.72 -5.58)"/><path class="cls-1" d="M276.6,78.07c.21-.7.5-1.08,1.36-.71a7.2,7.2,0,0,0,5.91,0c.37-.16,1,.19,1.45.3-.22.41-.34,1-.69,1.2C282.59,80.08,278.56,79.67,276.6,78.07Z" transform="translate(-6.72 -5.58)"/></g></g><g id="Int_Circle" data-name="Int Circle"><path class="cls-2" d="M180,309h-8.7a49.49,49.49,0,0,1-10.21-.92c-3.1-.64-6.3-.8-9.36-1.55-4.82-1.18-9.62-2.5-14.32-4.1-4.48-1.53-8.86-3.37-13.18-5.3a104.4,104.4,0,0,1-10.33-5.3c-3.73-2.2-7.36-4.6-10.89-7.12-3-2.12-5.75-4.5-8.57-6.82a60.78,60.78,0,0,1-5.65-5c-3.76-4-7.36-8.1-11-12.17a89.24,89.24,0,0,1-8.68-12.28c-2-3.11-3.93-6.23-5.66-9.48-1.41-2.63-2.51-5.43-3.66-8.19-1.27-3-2.54-6.08-3.62-9.19-1-2.75-1.68-5.58-2.46-8.38-.63-2.27-1.3-4.53-1.77-6.83-.56-2.75-.94-5.53-1.36-8.31-.35-2.35-.69-4.71-.94-7.08a31.23,31.23,0,0,1,0-3.32c0-5.47,0-10.95,0-16.42a51,51,0,0,1,.89-10c.82-3.86,1.27-7.8,2-11.68a59.06,59.06,0,0,1,1.64-5.75c.7-2.3,1.35-4.62,2.17-6.87,1.14-3.13,2.38-6.23,3.66-9.3,1-2.5,2.14-5,3.36-7.42s2.41-4.58,3.78-6.78c2.12-3.4,4.26-6.81,6.62-10,2.19-3,4.65-5.83,7-8.69a59.1,59.1,0,0,1,4.72-5.4c4-3.81,8.21-7.47,12.34-11.17a74.09,74.09,0,0,1,7.67-5.61A116.69,116.69,0,0,1,121.49,63c3.78-1.79,7.69-3.31,11.58-4.85C136,57,138.87,55.9,141.83,55c2.63-.83,5.33-1.43,8-2.09,1.8-.44,3.61-.88,5.44-1.2,2.69-.47,5.39-.95,8.11-1.2,3.18-.3,6.38-.48,9.57-.49,6.87,0,13.74.05,20.6.26a44.58,44.58,0,0,1,6.92,1c3.76.72,7.53,1.43,11.25,2.34a79.74,79.74,0,0,1,8.48,2.61c4.11,1.51,8.16,3.2,12.22,4.82a67.27,67.27,0,0,1,12.82,6.66c3.36,2.28,6.87,4.33,10.2,6.67,2.72,1.91,5.3,4,7.87,6.16a61,61,0,0,1,5.91,5.22c3.94,4.2,7.65,8.63,11.57,12.85,2.81,3,4.88,6.56,7.17,9.93,1.82,2.69,3.54,5.46,5.12,8.29,1.33,2.38,2.42,4.89,3.58,7.37q1.45,3.1,2.81,6.24.91,2.12,1.7,4.29c.79,2.22,1.6,4.43,2.27,6.69.62,2.07,1.08,4.19,1.62,6.28.4,1.56.91,3.09,1.21,4.67.54,2.83,1,5.68,1.43,8.53.36,2.35.68,4.71.95,7.08a26.8,26.8,0,0,1,0,3c0,5.67.05,11.35,0,17a50,50,0,0,1-.89,9.81c-.82,3.86-1.28,7.8-2,11.68a57.82,57.82,0,0,1-1.63,5.63c-.71,2.34-1.35,4.7-2.19,7-1.16,3.17-2.43,6.29-3.74,9.4-1,2.43-2.08,4.85-3.26,7.2s-2.5,4.71-3.91,7c-2.09,3.37-4.16,6.78-6.52,10-2.66,3.58-5.62,6.93-8.48,10.36a37.4,37.4,0,0,1-3.23,3.68c-4.1,3.79-8.18,7.64-12.47,11.2a108.12,108.12,0,0,1-10.57,7.69,139.81,139.81,0,0,1-12.62,7.28c-3.83,1.93-7.9,3.43-11.89,5-2.89,1.15-5.81,2.24-8.78,3.17-2.63.83-5.33,1.42-8,2.08-1.46.36-2.92.71-4.4,1-2.57.45-5.17.74-7.74,1.23C190.62,309.41,184.88,308.88,180,309Z" transform="translate(-6.72 -5.58)"/></g><g id="Arabesque"><g id="Arabesque-2" data-name="Arabesque"><path class="cls-1" d="M196.12,305.25c1,.52,2,1,3.14,1.42A48.4,48.4,0,0,0,189.72,328c22.19,3.23,38.91-5.16,48-15.4a17.78,17.78,0,0,1-2.2-.23c-8,7.91-21.49,14.55-39.53,13,.16-1.18.35-2.23.63-3.46a49.44,49.44,0,0,0,25.24-3.09,21.87,21.87,0,0,1-1.27-2.28,43.71,43.71,0,0,1-6.61,1.74,31.1,31.1,0,0,1-.17-8.92,38.56,38.56,0,0,0,6.65-.81,21.61,21.61,0,0,0,4.64,8.73,41.84,41.84,0,0,0,10.44-7.5,18.48,18.48,0,0,0,7.06-.66,45.94,45.94,0,0,1-11.79,12.5,20,20,0,0,0,4.49,1.63,57.2,57.2,0,0,1-14,9.14,23.24,23.24,0,0,1-3.34-3.85c-1.75.64-3.29,1.14-5.33,1.68a25.33,25.33,0,0,0,2.8,4.55,71.07,71.07,0,0,1-33.05,3.08c0-1.18.06-2.35.17-3.53a68.89,68.89,0,0,0,25.66-.3,28,28,0,0,1-1-2.67,65.35,65.35,0,0,1-24.19-.6C184.57,322.07,188.88,313.21,196.12,305.25Zm22.73,6.31c-.88.2-1.67.35-2.54.48.1,1,.23,1.85.4,2.74,1-.22,1.94-.45,2.87-.71A24.77,24.77,0,0,1,218.86,311.55Zm3.86,14.94a21.66,21.66,0,0,0,1.74,1.62c1.62-.87,3-1.71,4.34-2.58a20.41,20.41,0,0,1-1.92-1.28C225.49,325.09,224.17,325.8,222.71,326.5Z" transform="translate(-6.72 -5.58)"/></g><g id="Arabesque-3" data-name="Arabesque"><path class="cls-1" d="M159.9,302.24a11.37,11.37,0,0,0,.68,1.51c-5.93,4.84-11.74,9.59-17.6,14.41,13.84,9.13,31.61,7.07,42.19-4.13l-1.18-.79A29.74,29.74,0,0,1,149.21,318l2.44-2.54a26.83,26.83,0,0,0,19.32,3l-.17-2.14a23.44,23.44,0,0,1-5.65.25l1.77-7.25a14.22,14.22,0,0,0,5.22.92c.65,2.38,1.31,4.78,2,7.25a25.76,25.76,0,0,0,11.05-7.65l4.13,1.24A33.49,33.49,0,0,1,175.71,323l1,3.56a42,42,0,0,1-15.18,4.64l1.15-4.72a37,37,0,0,1-4.84,0l-2,4.94a46.2,46.2,0,0,1-26.54-9.24l3.3-2.16a42.8,42.8,0,0,0,19.21,8.41l1.46-2.53a38.91,38.91,0,0,1-17.36-8Q147.87,310,159.9,302.24Zm10.6,9.94a17.17,17.17,0,0,1-2.09-.11l-.19,2.22a20.24,20.24,0,0,0,2.45-.09Zm-3.23,13.66-.17,2.13a39,39,0,0,0,4.56-1.3l-.16-1.94A36,36,0,0,1,167.26,325.84Z" transform="translate(-6.72 -5.58)"/></g><g id="Arabesque-4" data-name="Arabesque"><path class="cls-1" d="M124.49,291.56A8.07,8.07,0,0,0,125,293a54.3,54.3,0,0,1-12.84,9.48c7.87,7.72,22.35,8.9,33-.31,0-.47-.06-.91-.11-1.39-9,7.92-21,7.68-28.33,2.11.76-.56,1.41-1.05,2.13-1.64a18.83,18.83,0,0,0,15,3.56c.2-.62.36-1.14.51-1.72a18,18,0,0,1-5,.12,30.64,30.64,0,0,0,2-5,12.44,12.44,0,0,0,5.81,0,21.58,21.58,0,0,1-.46,5.78,23,23,0,0,0,10.56-7.19,18.86,18.86,0,0,1,.88,4,29,29,0,0,1-13,8.48c-.48,1.26-1,2.49-1.65,3.74a32.56,32.56,0,0,1-12.14,1.18c1.15-1.22,2.19-2.43,3.17-3.66a26.56,26.56,0,0,1-3.59-.54c-1.15,1.2-2.39,2.37-3.72,3.54a30.72,30.72,0,0,1-16.44-9.85c1.11-.32,2.18-.65,3.21-1a27.66,27.66,0,0,0,11.66,8.05c.76-.61,1.4-1.14,2.05-1.7A24.78,24.78,0,0,1,107,301.66,59.17,59.17,0,0,0,124.49,291.56ZM135,300a14.26,14.26,0,0,1-2.13.08c-.13.53-.27,1-.44,1.56a16.24,16.24,0,0,0,2.32-.16C134.84,301,134.91,300.5,135,300Zm-6.89,10.66c-.42.66-.81,1.23-1.21,1.79a30.07,30.07,0,0,0,3.67-.39c.37-.64.67-1.21,1-1.79A27.69,27.69,0,0,1,128.09,310.67Z" transform="translate(-6.72 -5.58)"/></g><g id="Arabesque-5" data-name="Arabesque"><path class="cls-1" d="M100,276.85a7.28,7.28,0,0,0,.75,1.23,25.44,25.44,0,0,1-9.83,3.61c1.74,6.94,10.49,11.14,19.68,7.15.64-.78,1.23-1.55,1.84-2.43-7.78,4.35-15.84,2-18.7-3.43.73-.21,1.34-.41,2-.66a10.68,10.68,0,0,0,9.59,4.63c.7-.62,1.26-1.17,1.84-1.78a11.77,11.77,0,0,1-3.78-.09,29.86,29.86,0,0,0,4.25-4.07,11.24,11.24,0,0,0,5.26-1.91,31.15,31.15,0,0,1-5.39,7.57,17.65,17.65,0,0,0,8.72-4.64,36.85,36.85,0,0,1-5.29,8.34,19.63,19.63,0,0,1-10.24,1.84,42.15,42.15,0,0,1-5.88,3.1,17.46,17.46,0,0,1-6.46-3.45,39.93,39.93,0,0,0,5.86-1.71,13.4,13.4,0,0,1-1.8-1.31,38.6,38.6,0,0,1-5.8,1.28,14.68,14.68,0,0,1-3.53-10.48c.92.14,1.78.23,2.62.29a13.27,13.27,0,0,0,2.53,8c1-.17,1.88-.34,2.75-.55A12.1,12.1,0,0,1,88.14,280,24,24,0,0,0,100,276.85ZM110,281.73a11.41,11.41,0,0,1-1.82.46c-.43.52-.86,1-1.34,1.51a11.82,11.82,0,0,0,1.89-.29C109.22,282.82,109.62,282.3,110,281.73Zm-13.84,9.44c-1,.44-1.84.79-2.72,1.12a16.29,16.29,0,0,0,2.09.89c1-.45,1.87-.88,2.71-1.32A15.36,15.36,0,0,1,96.19,291.17Z" transform="translate(-6.72 -5.58)"/></g><g id="Arabesque-6" data-name="Arabesque"><path class="cls-1" d="M78.58,253a7.82,7.82,0,0,0,.69,1.46,27.65,27.65,0,0,1-11,5.3c3.28,7.62,14.67,11.42,25.24,5,.48-.78.91-1.54,1.36-2.4-8.87,6.32-19,4.38-23.14-1.45.79-.31,1.45-.6,2.18-1,2.47,3.16,6.86,5,11.93,4.48.6-.66,1.08-1.22,1.58-1.85a14.2,14.2,0,0,1-4.5.09,30.71,30.71,0,0,0,3.78-4.28,12.39,12.39,0,0,0,6.06-1.72,33.15,33.15,0,0,1-4.34,7.23,20.88,20.88,0,0,0,10-6.39,39.52,39.52,0,0,1-3.64,8,24.18,24.18,0,0,1-12.19,4.35,47.26,47.26,0,0,1-5.17,3.78,22.62,22.62,0,0,1-8.86-2.45,46.51,46.51,0,0,0,5.68-2.51,17.19,17.19,0,0,1-2.48-1.19,45.59,45.59,0,0,1-5.8,2.08,18.14,18.14,0,0,1-7.24-11.27c1.08,0,2.1.05,3.09,0A16.12,16.12,0,0,0,67,267c1.06-.31,1.93-.6,2.83-.92a14.56,14.56,0,0,1-5-7.93A27.26,27.26,0,0,0,78.58,253Zm11.3,6.19a13,13,0,0,1-2.11.46c-.37.51-.74,1-1.15,1.52a13.84,13.84,0,0,0,2.21-.35C89.22,260.21,89.55,259.7,89.88,259.15ZM77,269.49c-.9.55-1.71,1-2.54,1.46a21,21,0,0,0,2.78.59c.92-.57,1.69-1.1,2.45-1.64A19.65,19.65,0,0,1,77,269.49Z" transform="translate(-6.72 -5.58)"/></g><g id="Arabesque-7" data-name="Arabesque"><path class="cls-1" d="M63.85,226.43a8.26,8.26,0,0,0,.85,1.38,28.65,28.65,0,0,1-11.07,3.71c1.5,7.88,10.84,12.94,21,9.12.79-.89,1.52-1.77,2.28-2.78-8.68,4.36-17.37,1.4-20.26-4.78.83-.21,1.52-.42,2.29-.68a11.7,11.7,0,0,0,10.34,5.54c.83-.71,1.5-1.32,2.21-2a12.85,12.85,0,0,1-4.15-.21,33.38,33.38,0,0,0,5-4.64,12.52,12.52,0,0,0,5.84-2.15,34.79,34.79,0,0,1-6.54,8.81A19.32,19.32,0,0,0,81.43,233a41.57,41.57,0,0,1-6.65,9.61,21.3,21.3,0,0,1-11.23,1.33,47,47,0,0,1-7,3.32,18.87,18.87,0,0,1-6.73-4.3,44.1,44.1,0,0,0,6.81-1.71,14.58,14.58,0,0,1-1.88-1.57,42.49,42.49,0,0,1-6.68,1.21,16.39,16.39,0,0,1-2.95-11.94c1,.19,2,.33,2.89.42a14.9,14.9,0,0,0,2.14,9.08c1.17-.15,2.15-.31,3.15-.51a13.58,13.58,0,0,1-2.6-8.42A26.78,26.78,0,0,0,63.85,226.43ZM75,231.91a12.62,12.62,0,0,1-2,.5c-.52.6-1,1.16-1.61,1.74a13,13,0,0,0,2.08-.29C74,233.19,74.49,232.58,75,231.91ZM58.72,242.47c-1.13.47-2.16.84-3.19,1.17a17.6,17.6,0,0,0,2.2,1.13c1.19-.47,2.21-.93,3.2-1.41A16.55,16.55,0,0,1,58.72,242.47Z" transform="translate(-6.72 -5.58)"/></g><g id="Arabesque-8" data-name="Arabesque"><path class="cls-1" d="M56.69,199.76a8.42,8.42,0,0,0,.78.87,20.14,20.14,0,0,1-9.41.72c-1.32,6.55,1.36,12.22,6.38,14.81A34.56,34.56,0,0,0,58,214.23a11.55,11.55,0,0,1-8.25-11c.68,0,1.27,0,1.93-.08A10.74,10.74,0,0,0,56.09,210a27.24,27.24,0,0,0,2.81-1.59,9.35,9.35,0,0,1-2.21-1.27,23.46,23.46,0,0,0,6.16-4.32,9.39,9.39,0,0,0,3.78-.81,26.54,26.54,0,0,1-9.3,8.64A11.39,11.39,0,0,0,63,211.83a35.61,35.61,0,0,1-11.37,6.93,13.43,13.43,0,0,1-4.44-4.48,34.5,34.5,0,0,1-7.79.41,17.62,17.62,0,0,1-.38-5.51,29.29,29.29,0,0,0,6.36.62,15,15,0,0,1-.23-1.75,27.31,27.31,0,0,1-5.84-.88,23,23,0,0,1,4.39-9.51,17.06,17.06,0,0,0,1.61.86,21.3,21.3,0,0,0-2.8,7.43,25,25,0,0,0,2.64.39,19,19,0,0,1,1.74-7.17A19.23,19.23,0,0,0,56.69,199.76Zm6.83,4.89a9,9,0,0,1-1.26,0,24.16,24.16,0,0,1-2.07,1.69,9,9,0,0,0,1.22.29A25,25,0,0,0,63.52,204.66Zm-17.79,6.75a30.66,30.66,0,0,1-3.24,0,15.51,15.51,0,0,0,.36,1.62,32.31,32.31,0,0,0,3.44-.21A13.85,13.85,0,0,1,45.73,211.41Z" transform="translate(-6.72 -5.58)"/></g></g><path id="Red_Stripe" data-name="Red Stripe" class="cls-2" d="M305.26,225.84l39,11c.73-2.38,1.53-5.15,2.38-8.25.38-1.4,1.25-4.64,2.25-8.87.74-3.14,1.58-6.89,2.42-11.17l-37.86-8.73Z" transform="translate(-6.72 -5.58)"/><path id="Yellow_Stripe" data-name="Yellow Stripe" class="cls-1" d="M281.9,268.37l32.6,21c1.35-1.66,2.89-3.61,4.56-5.81,1.35-1.78,1.35-1.82,4.25-5.75,3.09-4.19,3.43-4.55,4.38-6A54.34,54.34,0,0,0,331,266l-33.38-19.88Z" transform="translate(-6.72 -5.58)"/><g id="Soccer_Ball" data-name="Soccer Ball"><path class="cls-1" d="M178.42,313.5c-.2-.12-.4-.32-.6-.33-2.08-.11-4.17-.12-6.24-.3-3.75-.32-7.52-.55-11.23-1.16-5.06-.84-10.08-1.89-15.07-3.07-2.84-.67-5.59-1.76-8.37-2.67a110.77,110.77,0,0,1-18.23-7.91c-4.3-2.34-8.44-5-12.56-7.6A87.2,87.2,0,0,1,92.7,280c-2.45-2.35-5.15-4.46-7.44-7-3.54-3.86-7-7.83-10.16-12a127.22,127.22,0,0,1-9-13.28,152.85,152.85,0,0,1-7.74-15.64,120.18,120.18,0,0,1-5-14c-1.33-4.55-2.3-9.23-3.17-13.89-.79-4.25-1.25-8.56-1.83-12.84a16.08,16.08,0,0,1,0-1.81c-.08-4-.29-7.93-.21-11.9.07-3.6.45-7.2.71-10.8a112.86,112.86,0,0,1,3.42-19.21,97,97,0,0,1,5.08-15.59c1.92-4.37,3.76-8.8,6-13a107.29,107.29,0,0,1,7.13-12c3.16-4.53,6.64-8.85,10.21-13.06a97.17,97.17,0,0,1,9-9.47c4.28-3.85,8.79-7.46,13.37-11a75.86,75.86,0,0,1,9.55-6.33C118,64.28,123.47,61.56,129,59a83.47,83.47,0,0,1,10.62-4c4.44-1.36,9-2.46,13.51-3.51,3.11-.72,6.28-1.17,9.43-1.69,1.66-.27,3.34-.52,5-.63,4.5-.31,9-.82,13.5-.73,5.31.11,10.63.61,15.92,1.23,5,.59,9.93,1.34,14.81,2.42,4.07.9,8,2.39,12,3.56a99.91,99.91,0,0,1,16.47,6.75,122.47,122.47,0,0,1,16.92,10.11,115.31,115.31,0,0,1,13.89,11.22c2.58,2.53,5.21,5,7.69,7.65a121.82,121.82,0,0,1,10.72,13.31,133.14,133.14,0,0,1,11,18.69,109,109,0,0,1,4.9,11.39c1.69,4.8,3.16,9.7,4.38,14.64,1,4.15,1.55,8.43,2.33,12.64,1.65,9,1.41,18,1.22,27.05a105.84,105.84,0,0,1-1.37,12c-.39,2.88-.88,5.76-1.47,8.61a65.27,65.27,0,0,1-1.84,7.19c-1.75,5.32-3.42,10.68-5.53,15.86a128.11,128.11,0,0,1-6.4,13,103.09,103.09,0,0,1-6.35,10.09A126.55,126.55,0,0,1,281.09,268c-4.23,4.64-8.82,9-13.48,13.2a112.33,112.33,0,0,1-10.49,8.33,103.05,103.05,0,0,1-10.7,6.69A151,151,0,0,1,232.24,303a145.43,145.43,0,0,1-15.5,5.36,148.79,148.79,0,0,1-15.14,3.33c-3.7.64-7.48.83-11.23,1.14-2.16.18-4.33.18-6.5.29a2.27,2.27,0,0,0-.74.34ZM310,180.58c-.23-3.54-.32-7.38-.77-11.17a164.77,164.77,0,0,0-2.5-16.64,127.31,127.31,0,0,0-5-16.7,157,157,0,0,0-6.92-15.17,106.7,106.7,0,0,0-12-18.61A98.67,98.67,0,0,0,272,90.15c-3.57-3.22-7-6.64-10.79-9.58-5-3.82-10.08-7.46-15.39-10.78a85.22,85.22,0,0,0-12.63-6.41A175.76,175.76,0,0,0,215.33,57a121.59,121.59,0,0,0-15.58-3.18,142.84,142.84,0,0,0-15.08-1.51c-4.59-.21-9.21.07-13.81.22a47.11,47.11,0,0,0-5.68.57c-3.28.51-6.54,1.15-9.82,1.71a110.38,110.38,0,0,0-19.49,5.55,91.73,91.73,0,0,0-10.31,4.38c-5,2.59-10,5.36-14.79,8.33a123.29,123.29,0,0,0-10.26,7.33c-2.66,2-5.21,4.26-7.66,6.54-2.15,2-4.15,4.15-6.12,6.32-2.5,2.73-5.08,5.42-7.3,8.36-3,3.92-5.72,8-8.39,12.13a117.37,117.37,0,0,0-11.64,24,108.79,108.79,0,0,0-5.5,21.1c-.73,5-1.8,9.91-1.95,14.89-.22,7.45.25,14.91.42,22.37a2.18,2.18,0,0,0,.05.38c.67,3.27,1.26,6.56,2,9.8,1.15,4.78,2.16,9.62,3.75,14.25,1.92,5.57,4.23,11,6.66,16.39A112.39,112.39,0,0,0,75.55,255a98.86,98.86,0,0,0,12.16,14.63c4.14,4,8.38,7.86,12.73,11.6a106.87,106.87,0,0,0,19.25,12.86,110.09,110.09,0,0,0,19.25,8.4c4.15,1.29,8.26,2.71,12.45,3.83,2.56.69,5.26.88,7.88,1.38a117.38,117.38,0,0,0,24,1.81,104.33,104.33,0,0,0,18.22-1.64c5.61-1.09,11.19-2.37,16.7-3.88a96.29,96.29,0,0,0,17.92-6.94c2.53-1.27,5.18-2.34,7.58-3.8,4.1-2.5,8.16-5.1,12-7.92a157.06,157.06,0,0,0,12.41-9.84,116.28,116.28,0,0,0,9.59-10,115.1,115.1,0,0,0,7.93-10c3-4.27,5.83-8.67,8.4-13.2A122.87,122.87,0,0,0,300,230.12a106.1,106.1,0,0,0,4.18-11.45c1.28-4.3,2.27-8.7,3.2-13.09a95.73,95.73,0,0,0,1.78-10.64C309.6,190.28,309.69,185.58,310,180.58Z" transform="translate(-6.72 -5.58)"/><path class="cls-1" d="M68.22,151.49c1.32-.42,1.8.22,2.33,1.07,2.1,3.37,4.3,6.69,6.42,10,1.39,2.2,2.72,4.45,4.08,6.67,1.47,2.4,2.93,4.8,4.44,7.17,2.3,3.61,4.85,7.08,6.86,10.84,1.13,2.1,2.64,2,4.35,1.82,4.42-.37,8.83-.85,13.25-1.27,4.63-.44,9.27-.86,13.9-1.31a32.4,32.4,0,0,0,3.83-.54,2.15,2.15,0,0,0,1.23-.95c2.89-4.95,5.71-9.93,8.58-14.88,3.19-5.5,6.42-11,9.62-16.48q3.05-5.25,6.07-10.52c1.5-2.63,3-5.27,4.43-7.94a2,2,0,0,0,.05-1.54c-1.16-2.71-2.41-5.38-3.62-8.07-2.49-5.53-4.95-11.07-7.45-16.6-1.13-2.49-2.32-5-3.48-7.44a1.63,1.63,0,0,0-1.72-1.07c-1.54.07-3.07.06-4.61.06q-18.55,0-37.11-.06a11,11,0,0,1-1.66-.26c.39-1.77,1.76-1.79,2.87-1.82,4.18-.09,8.36-.07,12.54,0,5.65.05,11.3.18,16.95.24,3.66,0,7.32,0,11,0a2.55,2.55,0,0,0,2.22-1.05c3.2-4,6.37-8,9.58-12.06q6.1-7.64,12.24-15.24c1.41-1.74,2.86-3.44,4.4-5.06.34-.35,1.14-.27,1.73-.38-.09.52,0,1.18-.29,1.55-1.93,2.46-4,4.86-5.92,7.29q-4.09,5-8.15,10.11-4.28,5.31-8.56,10.62c-1.21,1.5-2.43,3-3.55,4.57a1.9,1.9,0,0,0-.17,1.59c2.26,5.06,4.62,10.09,6.91,15.14,2.36,5.22,4.66,10.46,7,15.68a2.6,2.6,0,0,0,2.21,1.8c3.33.54,6.6,1.49,9.91,2.16,2.73.56,5.51.88,8.24,1.44,3,.6,5.93,1.39,8.9,2,3.15.66,6.32,1.19,9.46,1.85,2.73.57,5.43,1.27,8.15,1.85,4,.85,8,1.66,12,2.41a2.07,2.07,0,0,0,1.43-.63c2-1.83,4-3.73,5.93-5.58q5.77-5.41,11.55-10.81c2.43-2.28,4.86-4.58,7.24-6.91a1.36,1.36,0,0,0,.22-1.16c-1.92-6.05-3.91-12.09-5.84-18.14-1.78-5.57-3.51-11.15-5.27-16.72-.55-1.75-1.19-3.47-1.69-5.23a4.08,4.08,0,0,1,.19-1.53c.37.29.91.5,1.09.88a53.28,53.28,0,0,1,2.43,5.6c1.39,4.12,2.65,8.28,3.94,12.43,1.52,4.88,3,9.76,4.55,14.64.78,2.48,1.54,5,2.43,7.4a2.44,2.44,0,0,0,1.31,1.25c5.33,2,10.69,4,16,6q10.17,3.85,20.32,7.74a15,15,0,0,1,2.82,1.21c.47.3.65,1.06,1,1.61-.48.1-1,.42-1.42.28-4.34-1.59-8.66-3.23-13-4.89-4.84-1.86-9.67-3.77-14.51-5.64-3.72-1.43-7.46-2.81-11.18-4.25a1.75,1.75,0,0,0-2.11.32q-5.33,5.08-10.71,10.11c-3.16,2.95-6.35,5.86-9.51,8.8-1.38,1.28-2.65,2.67-4.09,3.87a3.26,3.26,0,0,0-1.14,3.21c.41,3.17.88,6.34,1.26,9.52.24,2,.35,3.92.56,5.88.42,4,.89,8.07,1.28,12.11.31,3.19.47,6.4.82,9.6s.86,6.08,1.24,9.13c.25,2,.39,4,.57,6a24.18,24.18,0,0,0,.31,3.19,2.49,2.49,0,0,0,1.07,1.45c3.28,1.87,6.62,3.65,9.93,5.49,5.33,3,10.63,6,16,8.95,1.13.63,2.26,1.25,3.43,1.79a1.26,1.26,0,0,0,1-.21c2.81-2,5.59-4.14,8.39-6.2s5.88-4.31,8.84-6.44,6.2-4.42,9.31-6.62,6-4.2,8.92-6.33c.53-.39,1-.81,1.54-.15s.1,1.35-.4,1.77c-1,.83-2.06,1.55-3.11,2.29-4.35,3.06-8.71,6.1-13,9.18s-8.85,6.36-13.27,9.56a54.77,54.77,0,0,0-4.92,3.69,4,4,0,0,0-1,2.59c-.26,5-.37,10.06-.57,15.09-.14,3.52-.35,7-.51,10.55-.1,2.15-.15,4.3-.27,6.44-.16,3-.29,5.91-.57,8.86a1.94,1.94,0,0,1-1.16,1.42c-.9.11-1-.77-.93-1.49.18-4.64.33-9.28.53-13.92.13-3,.37-6,.5-9s.15-5.77.28-8.65.31-5.74.52-8.6a2.08,2.08,0,0,0-1.3-2.14q-6.94-3.81-13.86-7.66c-3.59-2-7.16-4.06-10.75-6.07-1.71-1-3.42-2-5.21-2.74a3.09,3.09,0,0,0-2.18.11c-2.93,1.23-5.79,2.59-8.7,3.88-5.61,2.49-11.23,5-16.83,7.46-3.3,1.47-6.56,3-9.86,4.49-2.66,1.19-5.36,2.32-8,3.51s-5.41,2.42-8.05,3.74a2.58,2.58,0,0,0-1.12,1.59c-1.34,5.85-2.59,11.73-3.89,17.59-1.14,5.16-2.33,10.3-3.4,15.48a2.26,2.26,0,0,0,.75,1.83c4.74,3.69,9.58,7.26,14.33,10.94,5.91,4.57,11.77,9.22,17.65,13.83.37.29.74.58,1.12.86.78.57.58,1.17,0,1.73s-1.1.4-1.7-.09c-3-2.45-6-4.89-9-7.29s-6.35-5-9.54-7.46c-3.63-2.81-7.27-5.63-10.94-8.39a52.48,52.48,0,0,0-4.67-3.14,2.79,2.79,0,0,0-1.89-.24c-6.6,1.56-13.17,3.2-19.77,4.77-5.47,1.3-11,2.43-16.41,3.85-1.42.37-3.1.32-4.28,1.56-.22.23-1,.13-1.4-.11a1.33,1.33,0,0,1-.38-1.22,1.92,1.92,0,0,1,1.06-1.1c1.73-.5,3.5-.84,5.24-1.28,2.74-.69,5.47-1.46,8.22-2.1,6.56-1.52,13.14-3,19.7-4.47,2.21-.51,4.37-1.53,6.59-1.65,3.61-.19,3.8-2.71,4.33-5.18q1.51-7,3.06-14c1.14-5.16,2.31-10.31,3.44-15.48a2.28,2.28,0,0,0-.79-2.26c-2.09-2.1-4-4.38-6-6.58-1.27-1.39-2.58-2.75-3.84-4.14-2-2.16-3.88-4.35-5.85-6.51-1.41-1.55-2.87-3.07-4.31-4.59-3.68-3.91-7.38-7.81-11-11.75-1.88-2-3.68-4.15-5.51-6.22a2.92,2.92,0,0,0-3.07-1c-2.23.42-4.55.41-6.83.62-3.47.32-6.95.67-10.42,1-2.19.2-4.39.35-6.58.56-3.56.33-7.12.65-10.67,1.1-.47.06-1.06.75-1.25,1.27-1.22,3.37-2.32,6.78-3.5,10.16-1.65,4.71-3.34,9.4-5,14.1s-3.26,9.42-5,14.1c-.12.34-.83.47-1.26.7-.26-.56-.85-1.22-.72-1.67.6-2,1.43-3.93,2.13-5.9,1.63-4.58,3.22-9.17,4.86-13.75,1.29-3.61,2.66-7.2,4-10.81,1.1-3,2.2-6.09,3.16-9.18a2.93,2.93,0,0,0-.32-2.17c-2.84-4.53-5.79-9-8.67-13.49-2.29-3.59-4.52-7.22-6.78-10.83s-4.56-7.22-6.79-10.85A4.58,4.58,0,0,1,68.22,151.49Zm155,52-.34-.23q-.22-2.23-.44-4.45c-.1-1-.2-2-.32-3.06-.4-3.39-.84-6.78-1.22-10.17-.23-2.08-.35-4.18-.57-6.26-.31-2.93-.69-5.85-1-8.78-.22-2.09-.34-4.18-.57-6.26-.3-2.76-.68-5.51-1-8.26-.29-2.5-.49-5-.86-7.51a2,2,0,0,0-1.14-1.3c-1.6-.47-3.25-.75-4.89-1.08l-12.37-2.43c-4.2-.84-8.4-1.66-12.59-2.55-4.69-1-9.37-2.06-14.06-3.06q-5.4-1.15-10.83-2.17a1.42,1.42,0,0,0-1.07.62c-.55.81-1,1.71-1.46,2.56-2.54,4.4-5.07,8.79-7.63,13.18s-5,8.45-7.48,12.71c-2.38,4.1-4.69,8.24-7,12.36-1.35,2.37-2.75,4.71-4.05,7.11a2.07,2.07,0,0,0-.15,1.73A19.75,19.75,0,0,0,134.5,189c2,2.11,4.06,4.16,6,6.29s3.83,4.38,5.81,6.51c3.71,4,7.47,8,11.22,11.92,1.5,1.59,3,3.14,4.51,4.76,2.58,2.85,5.13,5.74,7.67,8.63a1.2,1.2,0,0,0,1.67.28c3.38-1.57,6.79-3.08,10.19-4.6q9.59-4.29,19.18-8.56c3.57-1.59,7.17-3.11,10.74-4.7s6.89-3.12,10.31-4.74A6.12,6.12,0,0,0,223.19,203.53Z" transform="translate(-6.72 -5.58)"/></g></svg>